<?xml version='1.0' encoding='utf-8'?>
<!DOCTYPE svg>
<!-- Generator: Adobe Illustrator 18.0.0, SVG Export Plug-In . SVG Version: 6.00 Build 0)  -->
<svg xmlns="http://www.w3.org/2000/svg" width="0.409722in" height="1.01111in" xmlns:xml="http://www.w3.org/XML/1998/namespace" viewBox="0 0 29.5 72.8" x="0px"  y="0px" id="Layer_1" gorn="0" version="1.1" xml:space="preserve" enable-background="new 0 0 29.5 72.8">
    <desc >
        <referenceFile >sparkfun-electromechanical_ayz0202_schematic.svg</referenceFile>
    </desc>
    <g  id="schematic" gorn="0.1">
        <line fill="none"  stroke-linecap="round" y1="7.6" y2="14" stroke-width="0.254" x1="18.4" stroke="#000000" x2="8.3"/>
        <line fill="none"  stroke-linecap="round" y1="35.6" y2="29.2" stroke-width="0.254" x1="8.3" stroke="#000000" x2="18.4"/>
        <line fill="none"  stroke-linecap="round" y1="4" y2="0.4" stroke-width="0.254" x1="22" stroke="#000000" x2="22"/>
        <line fill="none"  stroke-linecap="round" y1="0.4" y2="0.4" stroke-width="0.254" x1="22" stroke="#000000" x2="7.6"/>
        <line fill="none"  stroke-linecap="round" y1="0.4" y2="11.2" stroke-width="0.254" x1="7.6" stroke="#000000" x2="7.6"/>
        <line fill="none"  stroke-linecap="round" y1="18.4" y2="32.8" stroke-width="0.254" x1="7.6" stroke="#000000" x2="7.6"/>
        <line fill="none"  stroke-linecap="round" y1="40" y2="50.8" stroke-width="0.254" x1="7.6" stroke="#000000" x2="7.6"/>
        <line fill="none"  stroke-linecap="round" y1="40" y2="32.8" stroke-width="0.254" x1="22" stroke="#000000" x2="22"/>
        <line fill="none"  stroke-linecap="round" y1="11.2" y2="18.4" stroke-width="0.254" x1="22" stroke="#000000" x2="22"/>
        <line fill="none"  stroke-linecap="round" y1="57.2" y2="50.8" stroke-width="0.254" x1="8.3" stroke="#000000" x2="18.4"/>
        <line fill="none"  stroke-linecap="round" y1="40" y2="54.4" stroke-width="0.254" x1="7.6" stroke="#000000" x2="7.6"/>
        <line fill="none"  stroke-linecap="round" y1="61.6" y2="72.4" stroke-width="0.254" x1="7.6" stroke="#000000" x2="7.6"/>
        <line fill="none"  stroke-linecap="round" y1="72.4" y2="72.4" stroke-width="0.254" x1="7.6" stroke="#000000" x2="22"/>
        <line fill="none"  stroke-linecap="round" y1="72.4" y2="68.8" stroke-width="0.254" x1="22" stroke="#000000" x2="22"/>
        <line fill="none"  stroke-linecap="round" y1="61.6" y2="54.4" stroke-width="0.254" x1="22" stroke="#000000" x2="22"/>
        <circle r="1" fill="none"  cx="7.6" cy="14.8" stroke-width="0.254" stroke="#000000"/>
        <circle r="1" fill="none"  cx="22" cy="7.6" stroke-width="0.254" stroke="#000000"/>
        <circle r="1" fill="none"  cx="22" cy="22" stroke-width="0.254" stroke="#000000"/>
        <circle r="1" fill="none"  cx="22" cy="29.2" stroke-width="0.254" stroke="#000000"/>
        <circle r="1" fill="none"  cx="22" cy="43.6" stroke-width="0.254" stroke="#000000"/>
        <circle r="1" fill="none"  cx="7.6" cy="36.4" stroke-width="0.254" stroke="#000000"/>
        <circle r="1" fill="none"  cx="22" cy="50.8" stroke-width="0.254" stroke="#000000"/>
        <circle r="1" fill="none"  cx="22" cy="65.2" stroke-width="0.254" stroke="#000000"/>
        <circle r="1" fill="none"  cx="7.6" cy="58" stroke-width="0.254" stroke="#000000"/>
        <line fill="none"  stroke-linecap="round" id="connector2pin" y1="7.6" y2="7.6" gorn="0.1.24" stroke-width="0.2469" x1="29.2" stroke="#787878" x2="22"/>
        <path fill="none" d="M29.2,7.6L29.2,7.6L29.2,7.6z" />
        <g >
            <path fill="#8C8C8C" d="M26.3,5.8H26V4.5c0,0,0-0.1,0-0.1c0,0,0-0.1,0-0.1c0,0,0-0.1,0-0.1c0,0,0-0.1,0-0.1c0,0,0,0,0,0s0,0,0,0c0,0,0,0,0,0c0,0,0,0-0.1,0l-0.2,0.2l-0.1-0.2l0.6-0.4h0.2V5.8z" />
        </g>
        <line fill="none"  stroke-linecap="round" id="connector1pin" y1="29.2" y2="29.2" gorn="0.1.27" stroke-width="0.2469" x1="29.2" stroke="#787878" x2="22"/>
        <path fill="none" d="M29.2,29.2L29.2,29.2L29.2,29.2z"  id="connector2terminal_1_" gorn="0.1.28"/>
        <g >
            <path fill="#8C8C8C" d="M26.7,27.7h-1.3v-0.2l0.5-0.6c0.1-0.1,0.1-0.2,0.2-0.2s0.1-0.1,0.1-0.2c0-0.1,0.1-0.1,0.1-0.2c0-0.1,0-0.1,0-0.2c0-0.1,0-0.1,0-0.2s0-0.1-0.1-0.1c0,0-0.1-0.1-0.1-0.1s-0.1,0-0.1,0c-0.1,0-0.2,0-0.3,0.1c-0.1,0-0.1,0.1-0.2,0.1l-0.1-0.2c0,0,0.1-0.1,0.1-0.1c0,0,0.1-0.1,0.1-0.1s0.1,0,0.2-0.1c0.1,0,0.1,0,0.2,0c0.1,0,0.2,0,0.3,0c0.1,0,0.1,0.1,0.2,0.1c0.1,0,0.1,0.1,0.1,0.2c0,0.1,0,0.2,0,0.2c0,0.1,0,0.2,0,0.2c0,0.1-0.1,0.1-0.1,0.2c0,0.1-0.1,0.1-0.2,0.2c-0.1,0.1-0.1,0.1-0.2,0.2l-0.4,0.4v0h1V27.7z" />
        </g>
        <line fill="none"  stroke-linecap="round" id="connector0pin" y1="50.8" y2="50.8" gorn="0.1.30" stroke-width="0.2469" x1="29.2" stroke="#787878" x2="22"/>
        <path fill="none" d="M29.2,50.8L29.2,50.8L29.2,50.8z"  id="connector3terminal_1_" gorn="0.1.31"/>
        <g >
            <path fill="#8C8C8C" d="M26.7,47.9c0,0.1,0,0.1,0,0.2s-0.1,0.1-0.1,0.2c0,0-0.1,0.1-0.1,0.1c-0.1,0-0.1,0-0.2,0.1v0c0.2,0,0.3,0.1,0.4,0.2c0.1,0.1,0.1,0.2,0.1,0.3c0,0.1,0,0.2,0,0.3c0,0.1-0.1,0.1-0.1,0.2s-0.1,0.1-0.2,0.1s-0.2,0-0.3,0c-0.1,0-0.2,0-0.3,0c-0.1,0-0.2,0-0.3-0.1v-0.2c0.1,0,0.2,0.1,0.3,0.1c0.1,0,0.2,0,0.3,0c0.1,0,0.2,0,0.2,0s0.1,0,0.2-0.1c0,0,0.1-0.1,0.1-0.1c0-0.1,0-0.1,0-0.2c0-0.1,0-0.1,0-0.2c0,0-0.1-0.1-0.1-0.1c0,0-0.1-0.1-0.2-0.1c-0.1,0-0.1,0-0.2,0h-0.2v-0.2h0.2c0.1,0,0.1,0,0.2,0s0.1,0,0.2-0.1c0,0,0.1-0.1,0.1-0.1s0-0.1,0-0.2c0-0.1,0-0.1,0-0.1s0-0.1-0.1-0.1c0,0-0.1,0-0.1-0.1s-0.1,0-0.1,0c-0.1,0-0.2,0-0.3,0c-0.1,0-0.2,0.1-0.2,0.1l-0.1-0.2c0,0,0.1-0.1,0.1-0.1c0,0,0.1,0,0.1-0.1c0.1,0,0.1,0,0.2,0c0.1,0,0.1,0,0.2,0c0.1,0,0.2,0,0.3,0c0.1,0,0.1,0.1,0.2,0.1c0.1,0,0.1,0.1,0.1,0.2C26.6,47.7,26.7,47.8,26.7,47.9z" />
        </g>
        <line fill="none"  stroke-linecap="round" id="connector5pin" y1="14.8" y2="14.8" gorn="0.1.33" stroke-width="0.2469" x1="0.4" stroke="#787878" x2="7.6"/>
        <path fill="none" d="M0.4,14.8L0.4,14.8L0.4,14.8z" />
        <g >
            <path fill="#8C8C8C" d="M4.6,13.2H4.3v0.5H4v-0.5H3V13l1-1.4h0.3V13h0.3V13.2z M4,13v-0.5c0-0.1,0-0.1,0-0.2c0-0.1,0-0.1,0-0.2C4,12,4,12,4,11.9s0-0.1,0-0.1h0c0,0,0,0,0,0.1c0,0,0,0,0,0.1c0,0,0,0,0,0.1s0,0,0,0.1L3.3,13H4z" />
        </g>
        <line fill="none"  stroke-linecap="round" id="connector4pin" y1="36.4" y2="36.4" gorn="0.1.36" stroke-width="0.2469" x1="0.4" stroke="#787878" x2="7.6"/>
        <path fill="none" d="M0.4,36.4L0.4,36.4L0.4,36.4z"  id="connector5terminal_1_" gorn="0.1.37"/>
        <g >
            <path fill="#8C8C8C" d="M3.8,33.7c0.1,0,0.2,0,0.3,0c0.1,0,0.2,0.1,0.2,0.1c0.1,0.1,0.1,0.1,0.1,0.2s0.1,0.2,0.1,0.3c0,0.1,0,0.2,0,0.3s-0.1,0.2-0.1,0.2S4.1,35,4,35c-0.1,0-0.2,0-0.3,0c0,0-0.1,0-0.1,0c0,0-0.1,0-0.1,0c0,0-0.1,0-0.1,0s-0.1,0-0.1-0.1v-0.3c0,0,0.1,0,0.1,0.1c0,0,0.1,0,0.1,0s0.1,0,0.1,0c0,0,0.1,0,0.1,0c0.1,0,0.1,0,0.2,0s0.1,0,0.2-0.1s0.1-0.1,0.1-0.1s0-0.1,0-0.2c0-0.1,0-0.2-0.1-0.3s-0.2-0.1-0.4-0.1c0,0-0.1,0-0.1,0c0,0-0.1,0-0.1,0c0,0-0.1,0-0.1,0c0,0-0.1,0-0.1,0l-0.1-0.1l0.1-1h1v0.2H3.5l-0.1,0.6c0,0,0.1,0,0.1,0C3.7,33.7,3.7,33.7,3.8,33.7z" />
        </g>
        <line fill="none"  stroke-linecap="round" id="connector3pin" y1="58" y2="58" gorn="0.1.39" stroke-width="0.2469" x1="0.4" stroke="#787878" x2="7.6"/>
        <path fill="none" d="M0.4,58L0.4,58L0.4,58z"  id="connector6terminal_1_" gorn="0.1.40"/>
        <g >
            <path fill="#8C8C8C" d="M3.2,55.5c0-0.1,0-0.2,0-0.3c0-0.1,0-0.2,0.1-0.3c0-0.1,0.1-0.2,0.1-0.3s0.1-0.1,0.2-0.2c0.1-0.1,0.2-0.1,0.2-0.1c0.1,0,0.2,0,0.3,0c0,0,0,0,0.1,0s0,0,0.1,0c0,0,0,0,0.1,0c0,0,0,0,0.1,0v0.2c0,0-0.1,0-0.1,0s-0.1,0-0.1,0c-0.1,0-0.2,0-0.2,0c-0.1,0-0.1,0.1-0.2,0.1s-0.1,0.1-0.1,0.1s-0.1,0.1-0.1,0.2c0,0.1,0,0.1,0,0.2s0,0.1,0,0.2h0c0,0,0-0.1,0.1-0.1c0,0,0.1-0.1,0.1-0.1c0,0,0.1,0,0.1-0.1s0.1,0,0.2,0c0.1,0,0.2,0,0.3,0c0.1,0,0.1,0.1,0.2,0.1s0.1,0.1,0.1,0.2c0,0.1,0,0.2,0,0.3c0,0.1,0,0.2,0,0.3s-0.1,0.2-0.1,0.2c-0.1,0.1-0.1,0.1-0.2,0.1s-0.2,0-0.3,0c-0.1,0-0.2,0-0.3-0.1c-0.1,0-0.2-0.1-0.2-0.2S3.3,56,3.2,55.9S3.2,55.6,3.2,55.5z M3.9,56.2c0.1,0,0.1,0,0.2,0c0,0,0.1,0,0.1-0.1c0,0,0.1-0.1,0.1-0.2c0-0.1,0-0.1,0-0.2c0-0.1,0-0.1,0-0.2c0-0.1,0-0.1-0.1-0.1S4.1,55.3,4,55.3c0,0-0.1,0-0.2,0c-0.1,0-0.1,0-0.2,0c-0.1,0-0.1,0.1-0.1,0.1c0,0-0.1,0.1-0.1,0.1c0,0,0,0.1,0,0.1c0,0.1,0,0.1,0,0.2c0,0.1,0,0.1,0.1,0.2c0,0.1,0.1,0.1,0.1,0.1C3.7,56.2,3.8,56.2,3.9,56.2z" />
        </g>
        <line fill="none"  stroke-linecap="round" id="connector7pin" y1="22" y2="22" gorn="0.1.42" stroke-width="0.2469" x1="29.2" stroke="#787878" x2="22"/>
        <path fill="none" d="M29.2,22L29.2,22L29.2,22z"  id="connector7terminal" gorn="0.1.43"/>
        <g >
            <path fill="#8C8C8C" d="M25.7,20.6l0.8-1.9h-1.1v-0.2h1.4v0.2l-0.8,1.9H25.7z" />
        </g>
        <line fill="none"  stroke-linecap="round" id="connector8pin" y1="43.6" y2="43.6" gorn="0.1.45" stroke-width="0.2469" x1="29.2" stroke="#787878" x2="22"/>
        <path fill="none" d="M29.2,43.6L29.2,43.6L29.2,43.6z"  id="connector8terminal" gorn="0.1.46"/>
        <g >
            <path fill="#8C8C8C" d="M26.1,40.2c0.1,0,0.2,0,0.2,0c0.1,0,0.1,0.1,0.2,0.1c0.1,0,0.1,0.1,0.1,0.2s0,0.1,0,0.2c0,0.1,0,0.1,0,0.2s0,0.1-0.1,0.1c0,0-0.1,0.1-0.1,0.1c0,0-0.1,0.1-0.2,0.1c0.1,0,0.1,0.1,0.2,0.1c0.1,0,0.1,0.1,0.1,0.1c0,0,0.1,0.1,0.1,0.2c0,0.1,0,0.1,0,0.2c0,0.1,0,0.2,0,0.2c0,0.1-0.1,0.1-0.1,0.2c-0.1,0.1-0.1,0.1-0.2,0.1c-0.1,0-0.2,0-0.3,0c-0.1,0-0.2,0-0.3,0c-0.1,0-0.2-0.1-0.2-0.1c-0.1,0-0.1-0.1-0.1-0.2c0-0.1,0-0.2,0-0.2c0-0.1,0-0.1,0-0.2c0-0.1,0.1-0.1,0.1-0.2s0.1-0.1,0.1-0.1s0.1-0.1,0.2-0.1c0,0-0.1-0.1-0.1-0.1c0,0-0.1-0.1-0.1-0.1c0,0-0.1-0.1-0.1-0.1c0-0.1,0-0.1,0-0.2c0-0.1,0-0.2,0-0.2c0-0.1,0.1-0.1,0.1-0.2s0.1-0.1,0.2-0.1C25.9,40.2,26,40.2,26.1,40.2z M25.7,41.9c0,0.1,0,0.1,0,0.1c0,0,0,0.1,0.1,0.1c0,0,0.1,0.1,0.1,0.1c0.1,0,0.1,0,0.2,0c0.1,0,0.1,0,0.2,0c0.1,0,0.1,0,0.1-0.1c0,0,0.1-0.1,0.1-0.1s0-0.1,0-0.1c0-0.1,0-0.1,0-0.1c0,0,0-0.1-0.1-0.1c0,0-0.1-0.1-0.1-0.1s-0.1-0.1-0.2-0.1l0,0c-0.1,0.1-0.2,0.1-0.3,0.2C25.7,41.7,25.7,41.8,25.7,41.9z M26.1,40.5c-0.1,0-0.2,0-0.2,0.1c-0.1,0.1-0.1,0.1-0.1,0.2c0,0.1,0,0.1,0,0.1c0,0,0,0.1,0.1,0.1s0.1,0.1,0.1,0.1c0,0,0.1,0,0.1,0.1c0,0,0.1,0,0.1-0.1c0,0,0.1-0.1,0.1-0.1c0,0,0.1-0.1,0.1-0.1s0-0.1,0-0.1c0-0.1,0-0.2-0.1-0.2S26.2,40.5,26.1,40.5z" />
        </g>
        <line fill="none"  stroke-linecap="round" id="connector9pin" y1="65.2" y2="65.2" gorn="0.1.48" stroke-width="0.2469" x1="29.2" stroke="#787878" x2="22"/>
        <path fill="none" d="M29.2,65.2L29.2,65.2L29.2,65.2z"  id="connector9terminal" gorn="0.1.49"/>
        <g >
            <path fill="#8C8C8C" d="M26.8,63c0,0.1,0,0.2,0,0.3c0,0.1,0,0.2-0.1,0.3c0,0.1-0.1,0.2-0.1,0.3c0,0.1-0.1,0.2-0.2,0.2s-0.2,0.1-0.2,0.1c-0.1,0-0.2,0.1-0.3,0.1c0,0,0,0-0.1,0s0,0-0.1,0c0,0,0,0-0.1,0s0,0-0.1,0V64c0,0,0.1,0,0.1,0s0.1,0,0.1,0c0.1,0,0.2,0,0.3-0.1s0.2-0.1,0.2-0.2c0-0.1,0.1-0.2,0.1-0.3c0-0.1,0-0.2,0-0.3h0c0,0,0,0.1-0.1,0.1s-0.1,0.1-0.1,0.1s-0.1,0-0.1,0.1s-0.1,0-0.2,0c-0.1,0-0.2,0-0.3,0c-0.1,0-0.1-0.1-0.2-0.1s-0.1-0.1-0.1-0.2c0-0.1,0-0.2,0-0.3c0-0.1,0-0.2,0-0.3c0-0.1,0.1-0.2,0.1-0.2c0.1-0.1,0.1-0.1,0.2-0.1c0.1,0,0.2,0,0.3,0c0.1,0,0.2,0,0.3,0.1s0.2,0.1,0.2,0.2s0.1,0.2,0.1,0.3C26.7,62.7,26.8,62.9,26.8,63z M26.1,62.3c-0.1,0-0.1,0-0.2,0c0,0-0.1,0-0.1,0.1s-0.1,0.1-0.1,0.2c0,0.1,0,0.1,0,0.2c0,0.1,0,0.1,0,0.2c0,0.1,0,0.1,0.1,0.1s0.1,0.1,0.1,0.1c0,0,0.1,0,0.2,0c0.1,0,0.1,0,0.2,0c0.1,0,0.1-0.1,0.1-0.1c0,0,0.1-0.1,0.1-0.1c0,0,0-0.1,0-0.1c0-0.1,0-0.1,0-0.2c0-0.1,0-0.1-0.1-0.2c0-0.1-0.1-0.1-0.1-0.1S26.1,62.3,26.1,62.3z" />
        </g>
    </g>
</svg>
