<?xml version='1.0' encoding='utf-8'?>
<!DOCTYPE svg>
<!-- Generator: Adobe Illustrator 18.0.0, SVG Export Plug-In . SVG Version: 6.00 Build 0)  -->
<svg xmlns="http://www.w3.org/2000/svg" width="0.708333in" height="0.815278in" xmlns:xml="http://www.w3.org/XML/1998/namespace" viewBox="0 0 51 58.7" x="0px"  y="0px" id="Ebene_1" gorn="0" version="1.1" xml:space="preserve" enable-background="new 0 0 51 58.7">
    <desc >
        <referenceFile >sparkfun-electromechanical_ms_breadboard.svg</referenceFile>
    </desc>
    <g  id="breadboard" gorn="0.1">
        <g  id="icon_1_" gorn="0.1.0">
            <rect width="51" height="49" fill="#1962CC"  y="8.2"/>
            <circle r="14.5" fill="#CCCCCC"  cx="25.5" cy="32.7"/>
            <circle r="13.2" fill="#DDDDDD"  cx="25.5" cy="32.7"/>
        </g>
        <g >
            <rect width="2.3" height="2.3" fill="#8D8C8C" x="36.5"  y="2.4"/>
            <rect width="1.2" height="1.2" fill="#8C8663" x="37.1"  y="3" id="connector7pin" gorn="0.1.1.1"/>
        </g>
        <g >
            <rect width="2.3" height="2.3" fill="#8D8C8C" x="0"  y="2.3"/>
            <rect width="1.2" height="1.2" fill="#8C8663" x="0.6"  y="3" id="connector0pin" gorn="0.1.2.1"/>
        </g>
        <g >
            <rect width="2.3" height="2.3" fill="#8D8C8C" x="42.6"  y="2.4"/>
            <rect width="1.2" height="1.2" fill="#8C8663" x="43.2"  y="3" id="connector8pin" gorn="0.1.3.1"/>
        </g>
        <g >
            <rect width="2.3" height="2.3" fill="#8D8C8C" x="6.1"  y="2.3"/>
            <rect width="1.2" height="1.2" fill="#8C8663" x="6.7"  y="3" id="connector1pin" gorn="0.1.4.1"/>
        </g>
        <g >
            <rect width="2.3" height="2.3" fill="#8D8C8C" x="48.7"  y="2.4"/>
            <rect width="1.2" height="1.2" fill="#8C8663" x="49.3"  y="3" id="connector9pin" gorn="0.1.5.1"/>
        </g>
        <g >
            <rect width="2.3" height="2.3" fill="#8D8C8C" x="12.2"  y="2.3"/>
            <rect width="1.2" height="1.2" fill="#8C8663" x="12.8"  y="3" id="connector2pin" gorn="0.1.6.1"/>
        </g>
        <g >
            <rect width="2.3" height="2.3" fill="#8D8C8C" x="18.3"  y="2.3"/>
            <rect width="1.2" height="1.2" fill="#8C8663" x="18.9"  y="3" id="connector3pin" gorn="0.1.7.1"/>
        </g>
        <g >
            <rect width="2.3" height="2.3" fill="#8D8C8C" x="24.4"  y="2.3"/>
            <rect width="1.2" height="1.2" fill="#8C8663" x="25"  y="3" id="connector4pin" gorn="0.1.8.1"/>
        </g>
        <g >
            <rect width="2.3" height="2.3" fill="#8D8C8C" x="30.4"  y="2.3"/>
            <rect width="1.2" height="1.2" fill="#8C8663" x="31"  y="3" id="connector5pin" gorn="0.1.9.1"/>
        </g>
    </g>
</svg>
