<?xml version='1.0' encoding='utf-8'?>
<!DOCTYPE svg PUBLIC '-//W3C//DTD SVG 1.1//EN' 'http://www.w3.org/Graphics/SVG/1.1/DTD/svg11.dtd'>
<!-- Generator: Adobe Illustrator 16.0.1, SVG Export Plug-In . SVG Version: 6.00 Build 0)  -->
<svg xmlns:xml="http://www.w3.org/XML/1998/namespace" xmlns:xlink="http://www.w3.org/1999/xlink" xmlns="http://www.w3.org/2000/svg" x="0px" version="1.1" y="0px" id="_x30_" enable-background="new 7.746 0.751 93.637 72.001" viewBox="0 0 30.089 73.212" width="0.417903in" xml:space="preserve" height="1.01683in">
    <g id="0.0.0" oldid="0.0">
        <g id="0.0.0.0" oldid="0.0.0">SSM2220_Schematic.svg</g>
    </g>
    <g id="subpart1">
        <g>
            <line x1="29.383" x2="29.383" fill="none" id="connector3pin" stroke="#000000" y1="61.72" y2="72.712"/>
            <rect x="29.381" y="72.712" fill="none" id="connector3terminal" width="0.002" height="0.039"/>
            <line x1="19.043" x2="7.783" fill="none" id="connector2pin" stroke="#000000" y1="36.926" y2="36.926"/>
            <rect x="7.746" y="36.923" fill="none" id="connector2terminal" width="0.037" height="0.002"/>
            <line x1="29.383" x2="29.383" fill="none" id="connector1pin" stroke="#000000" y1="11.541" y2="0.958"/>
            <rect x="29.381" y="0.922" fill="none" id="connector1terminal" width="0.002" height="0.036"/>
            <text font-family="'ArialMT'" id="_x30_.1.11" font-size="4" transform="matrix(0.8074 0 0 1 23.0442 69.8206)">C1</text>
            <text font-family="'ArialMT'" id="_x30_.1.16" font-size="4" transform="matrix(0.8074 0 0 1 22.1829 7.9514)">E1</text>
            <text font-family="'ArialMT'" id="_x30_.1.16_1_" font-size="4" transform="matrix(0.8074 0 0 1 8.8625 42.5198)">B1</text>
            <g>
                <line x1="19.051" x2="19.051" fill="none" stroke="#000000" y1="29.892" y2="43.897"/>
                <line x1="29.301" x2="19.051" fill="none" stroke="#000000" y1="51.422" y2="40.022"/>
                <line x1="29.383" x2="19.051" fill="none" stroke="#000000" y1="22.351" y2="33.892"/>
                <line x1="29.383" x2="29.383" fill="none" stroke="#000000" y1="51.151" y2="61.698"/>
                <line x1="29.383" x2="29.383" fill="none" stroke="#000000" y1="11.541" y2="22.809"/>
                <polygon id="_x30_.5.1" points="22.299,30.4 24.144,24.648 27.787,27.911 &#x9;&#x9;"/>
            </g>
        </g>
    </g>
    <g id="subpart2">
        <g x1="43.522" x2="43.522" fill="none" id="connector4pin" stroke="#A7A5A6" y1="72.732" y2="58.366"/>
        <g x="43.52" y="72.732" fill="none" id="connector4terminal" width="0.002" height="0.021"/>
        <g x1="65.383" x2="65.383" fill="none" id="connector5pin" stroke="#A7A5A6" y1="72.736" y2="58.368"/>
        <g x="65.339" y="72.747" fill="none" id="connector5terminal" width="0.044" height="0.004"/>
        <g font-family="'ArialMT'" fill="#A7A5A6" id="_x30_.1.16_2_" font-size="4" transform="matrix(0.8074 0 0 1 40.783 56.3508)">NC</g>
        <g font-family="'ArialMT'" fill="#A7A5A6" id="_x30_.1.16_3_" font-size="4" transform="matrix(0.8074 0 0 1 62.844 56.3508)">NC</g>
        <g font-family="'ArialMT'" id="_x30_.1.22" font-size="4" transform="matrix(0.9059 0 0 1 46.5359 28.0247)">SSM2220</g>
    </g>
    <g id="subpart3">
        <g x1="79.735" x2="79.735" fill="none" id="connector8pin" stroke="#000000" y1="11.741" y2="0.751"/>
        <g x="79.735" y="0.884" fill="none" id="connector8terminal" width="0.004" height="0.073"/>
        <g x1="101.336" x2="90.314" fill="none" id="connector7pin" stroke="#000000" y1="36.767" y2="36.767"/>
        <g x="101.336" y="36.765" fill="none" id="connector7terminal" width="0.047" height="0.002"/>
        <g x1="79.735" x2="79.735" fill="none" id="connector6pin" stroke="#000000" y1="72.706" y2="62.183"/>
        <g x="79.733" y="72.706" fill="none" id="connector6terminal" width="0.002" height="0.045"/>
        <g font-family="'ArialMT'" id="_x30_.1.9" font-size="4" transform="matrix(0.8074 0 0 1 81.5916 69.0901)">C2</g>
        <g font-family="'ArialMT'" id="_x30_.1.20" font-size="4" transform="matrix(0.8074 0 0 1 94.5154 42.8616)">B2</g>
        <g x1="90.328" x2="90.328" fill="none" stroke="#000000" y1="43.94" y2="29.69"/>
        <g>
            <g font-family="'ArialMT'" id="_x30_.1.19" font-size="4" transform="matrix(0.8074 0 0 1 82.3318 7.1516)">E2</g>
            <g x1="90.068" x2="79.819" fill="none" stroke="#000000" y1="40.065" y2="51.378"/>
            <g x1="90.068" x2="79.735" fill="none" stroke="#000000" y1="33.69" y2="22.148"/>
            <g x1="79.735" x2="79.735" fill="none" stroke="#000000" y1="62.165" y2="51.106"/>
            <g x1="79.735" x2="79.735" fill="none" stroke="#000000" y1="22.607" y2="11.741"/>
            <g id="_x30_.5.1_1_" points="81.332,27.685 84.977,24.422 86.821,30.174 &#x9;&#x9;"/>
        </g>
    </g>
</svg>
